<svg xmlns="http://www.w3.org/2000/svg" viewBox="0 0 276.23 142.01"><defs><style>.cls-1{fill:#fff;}.cls-2{fill:#2eff70;}</style></defs><g id="Camada_2" data-name="Camada 2"><g id="Camada_1-2" data-name="Camada 1"><path class="cls-1" d="M15.12,118.24H12.17L0,141.65H2.77L5,137.36l3.17-6.11,4.44-8.65,1-2.18,1,2.18,4.11,8.19L21.86,137l2.36,4.64H27Z"/><path class="cls-1" d="M32.92,139.23v-21H30.39v23.41H49.56v-2.42Z"/><path class="cls-1" d="M77.57,134.88v-6.32h-14v3.3H74.07c0,4.33-3.6,6.81-9.09,6.81-6.27,0-9.7-2.69-9.7-8.71s2.87-8.77,9.91-8.77c5.81,0,8.49,2.33,8.61,5.13h3.64c0-4.38-3.55-8.44-12.4-8.44S51.5,122.33,51.5,130c0,7.81,5,12,12.94,12,5.72,0,8.47-2,9.78-3.58l.18,3.25h3.19C77.59,141.53,77.57,137.83,77.57,134.88Z"/><path class="cls-1" d="M105.71,121.46c-2.35-2.44-5.87-3.64-10.85-3.64S86.44,119,84,121.61c-2.06,2-3,4.77-3,8.26,0,3.82,1.16,6.68,3.31,8.61,2.29,2.31,5.82,3.5,10.5,3.5,4.83,0,8.58-1.19,10.82-3.61,1.94-2,3-4.77,3-8.53S107.77,123.43,105.71,121.46Zm-3,14.73c-1.76,1.64-4.23,2.45-7.81,2.45-3.28,0-5.61-.72-7.37-2.14s-2.65-3.71-2.65-6.57c0-2.69.74-4.92,2.18-6.27,1.63-1.54,4.14-2.47,7.81-2.47s6.14.89,7.9,2.45c1.5,1.31,2.15,3.64,2.15,6.26S104.19,134.82,102.67,136.19Z"/><path class="cls-1" d="M132.91,131.66a5.57,5.57,0,0,0,3.79-2.54,7.52,7.52,0,0,0,1-4.06,6.43,6.43,0,0,0-1.25-4.23c-1.22-1.58-3.55-2.59-7.1-2.59H112.63v23.41h5.57l0-18.82H128.7c1.67,0,2.54.36,3.05,1.1a2.79,2.79,0,0,1,.39,1.58,3.22,3.22,0,0,1-.39,1.59c-.36.6-1.19.93-2.72.93h-8.54v4.5h6.81l6.23,9.12h6.39Z"/><path class="cls-1" d="M143,118.24v23.41h5.76V118.24Z"/><path class="cls-1" d="M151.19,118.24v4.68h10.26v18.73h5.75V122.92h10.26v-4.68Z"/><path class="cls-1" d="M202.24,118.24l-6.39,14-6.08-14H179.33v23.41h7.61V129l5.48,12.64h6.81L204.78,129v12.64h7.57V118.24Z"/><path class="cls-1" d="M236.62,118.24V131.9c0,2.44-2.27,4.08-6.08,4.08-4,0-6.18-1.58-6.18-4.12V118.24h-8.08v13.62c0,7.1,5.82,10.12,13.93,10.12,8.68,0,14.4-3,14.4-9.37V118.24Z"/><path class="cls-1" d="M267.57,127.49c-1-.12-3.87-.42-5.7-.58-4.68-.5-6.08-.77-6.08-2s1.11-1.58,5.31-1.58c3,0,4.66.56,5.31,1.43a2,2,0,0,1,.48,1.07h8.59a8.11,8.11,0,0,0-.87-2.62c-1.55-3-5.27-5.37-13.3-5.37-9,0-14,3.2-14,7.37s2.81,6.38,10.38,7.07c1.05.08,3.55.33,5.13.47,4,.42,5,.69,5,1.94s-1,1.79-5.42,1.79c-3.41,0-5.41-.51-6.12-1.37a3,3,0,0,1-.57-1.25h-8.58a9.73,9.73,0,0,0,.56,2.33C249.2,139.5,253,142,261.87,142c9.52,0,14.36-2.68,14.36-7.63C276.23,130.28,273.63,128.14,267.57,127.49Z"/><path class="cls-2" d="M131.44,5.71V20.33L99,41.17a5.7,5.7,0,0,0,0,9.46l32.49,20.85V86.1a5.69,5.69,0,0,1-8.87,4.73L59.92,50.63a5.7,5.7,0,0,1,0-9.46L122.57,1A5.69,5.69,0,0,1,131.44,5.71Z"/><path class="cls-2" d="M152.24,25.71l-8.39-5.38V5.71A5.69,5.69,0,0,1,152.72,1l19,12.21Z"/><path class="cls-2" d="M215.37,50.63l-62.65,40.2a5.69,5.69,0,0,1-8.87-4.73V71.48l32.49-20.85a5.7,5.7,0,0,0,0-9.46l-4.59-2.94,19.52-12.52,24.1,15.46A5.7,5.7,0,0,1,215.37,50.63Z"/><path class="cls-2" d="M181.16,26,148.49,47a3,3,0,0,1-4.62-2.47V36.89L160.81,26l11.49-7.37a4.7,4.7,0,0,1,5,0l3.81,2.45A3,3,0,0,1,181.16,26Z"/></g></g></svg>