<svg xmlns="http://www.w3.org/2000/svg" viewBox="0 0 160.49 91.81"><defs><style>.cls-1{fill:#2eff70;}</style></defs><g id="Camada_2" data-name="Camada 2"><g id="Camada_1-2" data-name="Camada 1"><path class="cls-1" d="M74,5.71V20.33L41.55,41.17a5.7,5.7,0,0,0,0,9.46L74,71.48V86.1a5.69,5.69,0,0,1-8.87,4.73L2.52,50.63a5.7,5.7,0,0,1,0-9.46L65.17,1A5.69,5.69,0,0,1,74,5.71Z"/><path class="cls-1" d="M94.84,25.71l-8.39-5.38V5.71A5.69,5.69,0,0,1,95.32,1l19,12.21Z"/><path class="cls-1" d="M158,50.63,95.32,90.83a5.69,5.69,0,0,1-8.87-4.73V71.48l32.49-20.85a5.7,5.7,0,0,0,0-9.46l-4.59-2.94,19.52-12.52L158,41.17A5.7,5.7,0,0,1,158,50.63Z"/><path class="cls-1" d="M123.76,26,91.09,47a3,3,0,0,1-4.62-2.47V36.89L103.41,26l11.49-7.37a4.7,4.7,0,0,1,5,0l3.81,2.45A3,3,0,0,1,123.76,26Z"/></g></g></svg>